<mxfile host="app.diagrams.net" modified="2021-04-27T17:27:02.311Z" agent="5.0 (Windows NT 10.0; Win64; x64) AppleWebKit/537.36 (KHTML, like Gecko) Chrome/89.0.4389.128 Safari/537.36" etag="8jvQRcgKs2c4Mvao8SDC" version="14.6.6" type="github" pages="6">
  <diagram id="C5RBs43oDa-KdzZeNtuy" name="Socks">
    <mxGraphModel dx="1002" dy="715" grid="1" gridSize="10" guides="1" tooltips="1" connect="1" arrows="1" fold="1" page="1" pageScale="1" pageWidth="827" pageHeight="1169" math="0" shadow="0">
      <root>
        <mxCell id="WIyWlLk6GJQsqaUBKTNV-0" />
        <mxCell id="WIyWlLk6GJQsqaUBKTNV-1" parent="WIyWlLk6GJQsqaUBKTNV-0" />
        <mxCell id="WIyWlLk6GJQsqaUBKTNV-2" value="" style="rounded=0;html=1;jettySize=auto;orthogonalLoop=1;fontSize=11;endArrow=block;endFill=0;endSize=8;strokeWidth=1;shadow=0;labelBackgroundColor=none;edgeStyle=orthogonalEdgeStyle;" parent="WIyWlLk6GJQsqaUBKTNV-1" source="WIyWlLk6GJQsqaUBKTNV-3" target="WIyWlLk6GJQsqaUBKTNV-6" edge="1">
          <mxGeometry relative="1" as="geometry" />
        </mxCell>
        <mxCell id="WIyWlLk6GJQsqaUBKTNV-3" value="Socks Pile" style="rounded=1;whiteSpace=wrap;html=1;fontSize=12;glass=0;strokeWidth=1;shadow=0;" parent="WIyWlLk6GJQsqaUBKTNV-1" vertex="1">
          <mxGeometry x="160" y="80" width="120" height="40" as="geometry" />
        </mxCell>
        <mxCell id="WIyWlLk6GJQsqaUBKTNV-4" value="Yes" style="rounded=0;html=1;jettySize=auto;orthogonalLoop=1;fontSize=11;endArrow=block;endFill=0;endSize=8;strokeWidth=1;shadow=0;labelBackgroundColor=none;edgeStyle=orthogonalEdgeStyle;labelBorderColor=#000000;" parent="WIyWlLk6GJQsqaUBKTNV-1" source="WIyWlLk6GJQsqaUBKTNV-6" edge="1">
          <mxGeometry y="20" relative="1" as="geometry">
            <mxPoint as="offset" />
            <mxPoint x="220" y="290" as="targetPoint" />
          </mxGeometry>
        </mxCell>
        <mxCell id="WIyWlLk6GJQsqaUBKTNV-5" value="No" style="edgeStyle=orthogonalEdgeStyle;rounded=0;html=1;jettySize=auto;orthogonalLoop=1;fontSize=11;endArrow=block;endFill=0;endSize=8;strokeWidth=1;shadow=0;labelBackgroundColor=none;entryX=0;entryY=0.5;entryDx=0;entryDy=0;labelBorderColor=#000000;" parent="WIyWlLk6GJQsqaUBKTNV-1" source="WIyWlLk6GJQsqaUBKTNV-6" target="gODmdHOudrphZEfgqoJs-0" edge="1">
          <mxGeometry y="10" relative="1" as="geometry">
            <mxPoint as="offset" />
          </mxGeometry>
        </mxCell>
        <mxCell id="WIyWlLk6GJQsqaUBKTNV-6" value="Has Matching Color on side" style="rhombus;whiteSpace=wrap;html=1;shadow=0;fontFamily=Helvetica;fontSize=12;align=center;strokeWidth=1;spacing=6;spacingTop=-4;" parent="WIyWlLk6GJQsqaUBKTNV-1" vertex="1">
          <mxGeometry x="170" y="170" width="100" height="80" as="geometry" />
        </mxCell>
        <mxCell id="WIyWlLk6GJQsqaUBKTNV-7" value="Place With Match" style="rounded=1;whiteSpace=wrap;html=1;fontSize=12;glass=0;strokeWidth=1;shadow=0;" parent="WIyWlLk6GJQsqaUBKTNV-1" vertex="1">
          <mxGeometry x="160" y="290" width="120" height="40" as="geometry" />
        </mxCell>
        <mxCell id="CIAEXkNNm-Wt2vm7tbIj-30" value="Yes" style="edgeStyle=orthogonalEdgeStyle;rounded=0;orthogonalLoop=1;jettySize=auto;html=1;exitX=1;exitY=0.5;exitDx=0;exitDy=0;entryX=0;entryY=0.5;entryDx=0;entryDy=0;" parent="WIyWlLk6GJQsqaUBKTNV-1" source="CIAEXkNNm-Wt2vm7tbIj-27" target="CIAEXkNNm-Wt2vm7tbIj-29" edge="1">
          <mxGeometry relative="1" as="geometry" />
        </mxCell>
        <mxCell id="CIAEXkNNm-Wt2vm7tbIj-40" value="No" style="edgeStyle=orthogonalEdgeStyle;rounded=0;orthogonalLoop=1;jettySize=auto;html=1;exitX=0.5;exitY=1;exitDx=0;exitDy=0;entryX=0;entryY=0.5;entryDx=0;entryDy=0;" parent="WIyWlLk6GJQsqaUBKTNV-1" source="CIAEXkNNm-Wt2vm7tbIj-27" target="CIAEXkNNm-Wt2vm7tbIj-35" edge="1">
          <mxGeometry x="-0.7778" relative="1" as="geometry">
            <mxPoint as="offset" />
          </mxGeometry>
        </mxCell>
        <mxCell id="CIAEXkNNm-Wt2vm7tbIj-27" value="Item Needed" style="rhombus;whiteSpace=wrap;html=1;shadow=0;fontFamily=Helvetica;fontSize=12;align=center;strokeWidth=1;spacing=6;spacingTop=-4;" parent="WIyWlLk6GJQsqaUBKTNV-1" vertex="1">
          <mxGeometry x="110" y="830" width="100" height="80" as="geometry" />
        </mxCell>
        <mxCell id="CIAEXkNNm-Wt2vm7tbIj-32" value="" style="edgeStyle=orthogonalEdgeStyle;rounded=0;orthogonalLoop=1;jettySize=auto;html=1;" parent="WIyWlLk6GJQsqaUBKTNV-1" source="CIAEXkNNm-Wt2vm7tbIj-29" target="CIAEXkNNm-Wt2vm7tbIj-31" edge="1">
          <mxGeometry relative="1" as="geometry" />
        </mxCell>
        <mxCell id="CIAEXkNNm-Wt2vm7tbIj-29" value="Add to List" style="whiteSpace=wrap;html=1;rounded=1;shadow=0;strokeWidth=1;glass=0;" parent="WIyWlLk6GJQsqaUBKTNV-1" vertex="1">
          <mxGeometry x="310" y="847.5" width="120" height="45" as="geometry" />
        </mxCell>
        <mxCell id="CIAEXkNNm-Wt2vm7tbIj-34" value="Yes" style="edgeStyle=orthogonalEdgeStyle;rounded=0;orthogonalLoop=1;jettySize=auto;html=1;" parent="WIyWlLk6GJQsqaUBKTNV-1" source="CIAEXkNNm-Wt2vm7tbIj-31" edge="1">
          <mxGeometry relative="1" as="geometry">
            <mxPoint x="510" y="995" as="targetPoint" />
          </mxGeometry>
        </mxCell>
        <mxCell id="CIAEXkNNm-Wt2vm7tbIj-36" value="No" style="edgeStyle=orthogonalEdgeStyle;rounded=0;orthogonalLoop=1;jettySize=auto;html=1;" parent="WIyWlLk6GJQsqaUBKTNV-1" source="CIAEXkNNm-Wt2vm7tbIj-31" target="CIAEXkNNm-Wt2vm7tbIj-35" edge="1">
          <mxGeometry relative="1" as="geometry">
            <Array as="points">
              <mxPoint x="370" y="1110" />
            </Array>
          </mxGeometry>
        </mxCell>
        <mxCell id="CIAEXkNNm-Wt2vm7tbIj-31" value="List Items &amp;gt;=5" style="whiteSpace=wrap;html=1;rounded=1;shadow=0;strokeWidth=1;glass=0;" parent="WIyWlLk6GJQsqaUBKTNV-1" vertex="1">
          <mxGeometry x="310" y="972.5" width="120" height="45" as="geometry" />
        </mxCell>
        <mxCell id="CIAEXkNNm-Wt2vm7tbIj-35" value="Do Nothing" style="whiteSpace=wrap;html=1;rounded=1;shadow=0;strokeWidth=1;glass=0;" parent="WIyWlLk6GJQsqaUBKTNV-1" vertex="1">
          <mxGeometry x="310" y="1097.5" width="120" height="45" as="geometry" />
        </mxCell>
        <mxCell id="CIAEXkNNm-Wt2vm7tbIj-39" value="Go to Store" style="whiteSpace=wrap;html=1;rounded=1;shadow=0;strokeWidth=1;glass=0;" parent="WIyWlLk6GJQsqaUBKTNV-1" vertex="1">
          <mxGeometry x="510" y="972.5" width="120" height="45" as="geometry" />
        </mxCell>
        <mxCell id="gODmdHOudrphZEfgqoJs-0" value="Place on side" style="rounded=1;whiteSpace=wrap;html=1;fontSize=12;glass=0;strokeWidth=1;shadow=0;" vertex="1" parent="WIyWlLk6GJQsqaUBKTNV-1">
          <mxGeometry x="354" y="190" width="120" height="40" as="geometry" />
        </mxCell>
      </root>
    </mxGraphModel>
  </diagram>
  <diagram id="JwaZIwLnCaRZqTgcnBQv" name="Shirts">
    <mxGraphModel dx="1002" dy="715" grid="1" gridSize="10" guides="1" tooltips="1" connect="1" arrows="1" fold="1" page="1" pageScale="1" pageWidth="850" pageHeight="1100" math="0" shadow="0">
      <root>
        <mxCell id="YX02N_2gWfQbAGaPMNwx-0" />
        <mxCell id="YX02N_2gWfQbAGaPMNwx-1" parent="YX02N_2gWfQbAGaPMNwx-0" />
        <mxCell id="n0wWu6Av8mYLY1hxn7-u-5" style="edgeStyle=orthogonalEdgeStyle;rounded=0;orthogonalLoop=1;jettySize=auto;html=1;exitX=0.5;exitY=1;exitDx=0;exitDy=0;entryX=0.5;entryY=0;entryDx=0;entryDy=0;" edge="1" parent="YX02N_2gWfQbAGaPMNwx-1" source="YX02N_2gWfQbAGaPMNwx-3" target="YX02N_2gWfQbAGaPMNwx-6">
          <mxGeometry relative="1" as="geometry" />
        </mxCell>
        <mxCell id="YX02N_2gWfQbAGaPMNwx-3" value="Start in Middle of Rack" style="rounded=1;whiteSpace=wrap;html=1;fontSize=12;glass=0;strokeWidth=1;shadow=0;" parent="YX02N_2gWfQbAGaPMNwx-1" vertex="1">
          <mxGeometry x="350" y="60" width="120" height="40" as="geometry" />
        </mxCell>
        <mxCell id="YX02N_2gWfQbAGaPMNwx-4" value="Too Small" style="edgeStyle=orthogonalEdgeStyle;rounded=0;html=1;jettySize=auto;orthogonalLoop=1;fontSize=11;endArrow=block;endFill=0;endSize=8;strokeWidth=1;shadow=0;labelBackgroundColor=none;labelBorderColor=#000000;" parent="YX02N_2gWfQbAGaPMNwx-1" source="YX02N_2gWfQbAGaPMNwx-6" target="YX02N_2gWfQbAGaPMNwx-8" edge="1">
          <mxGeometry y="10" relative="1" as="geometry">
            <mxPoint as="offset" />
          </mxGeometry>
        </mxCell>
        <mxCell id="YX02N_2gWfQbAGaPMNwx-5" value="Too Big" style="edgeStyle=orthogonalEdgeStyle;rounded=0;orthogonalLoop=1;jettySize=auto;html=1;labelBorderColor=#000000;" parent="YX02N_2gWfQbAGaPMNwx-1" source="YX02N_2gWfQbAGaPMNwx-6" target="YX02N_2gWfQbAGaPMNwx-10" edge="1">
          <mxGeometry relative="1" as="geometry" />
        </mxCell>
        <mxCell id="YX02N_2gWfQbAGaPMNwx-6" value="Shirt Size" style="rhombus;whiteSpace=wrap;html=1;shadow=0;fontFamily=Helvetica;fontSize=12;align=center;strokeWidth=1;spacing=6;spacingTop=-4;" parent="YX02N_2gWfQbAGaPMNwx-1" vertex="1">
          <mxGeometry x="360" y="150" width="100" height="80" as="geometry" />
        </mxCell>
        <mxCell id="n0wWu6Av8mYLY1hxn7-u-2" style="edgeStyle=orthogonalEdgeStyle;rounded=0;orthogonalLoop=1;jettySize=auto;html=1;entryX=1;entryY=0.5;entryDx=0;entryDy=0;" edge="1" parent="YX02N_2gWfQbAGaPMNwx-1" source="YX02N_2gWfQbAGaPMNwx-8" target="n0wWu6Av8mYLY1hxn7-u-1">
          <mxGeometry relative="1" as="geometry">
            <Array as="points">
              <mxPoint x="610" y="330" />
            </Array>
          </mxGeometry>
        </mxCell>
        <mxCell id="YX02N_2gWfQbAGaPMNwx-8" value="Move Right" style="rounded=1;whiteSpace=wrap;html=1;fontSize=12;glass=0;strokeWidth=1;shadow=0;" parent="YX02N_2gWfQbAGaPMNwx-1" vertex="1">
          <mxGeometry x="560" y="170" width="120" height="40" as="geometry" />
        </mxCell>
        <mxCell id="n0wWu6Av8mYLY1hxn7-u-3" style="edgeStyle=orthogonalEdgeStyle;rounded=0;orthogonalLoop=1;jettySize=auto;html=1;exitX=0.5;exitY=1;exitDx=0;exitDy=0;entryX=0;entryY=0.5;entryDx=0;entryDy=0;" edge="1" parent="YX02N_2gWfQbAGaPMNwx-1" source="YX02N_2gWfQbAGaPMNwx-10" target="n0wWu6Av8mYLY1hxn7-u-1">
          <mxGeometry relative="1" as="geometry" />
        </mxCell>
        <mxCell id="YX02N_2gWfQbAGaPMNwx-10" value="Move Left" style="rounded=1;whiteSpace=wrap;html=1;fontSize=12;glass=0;strokeWidth=1;shadow=0;" parent="YX02N_2gWfQbAGaPMNwx-1" vertex="1">
          <mxGeometry x="170" y="170" width="120" height="40" as="geometry" />
        </mxCell>
        <mxCell id="YX02N_2gWfQbAGaPMNwx-12" value="Yes" style="edgeStyle=orthogonalEdgeStyle;rounded=0;orthogonalLoop=1;jettySize=auto;html=1;labelBorderColor=#000000;" parent="YX02N_2gWfQbAGaPMNwx-1" target="YX02N_2gWfQbAGaPMNwx-14" edge="1">
          <mxGeometry relative="1" as="geometry">
            <mxPoint x="410" y="365" as="sourcePoint" />
          </mxGeometry>
        </mxCell>
        <mxCell id="YX02N_2gWfQbAGaPMNwx-14" value="Finished" style="whiteSpace=wrap;html=1;rounded=1;shadow=0;strokeWidth=1;glass=0;" parent="YX02N_2gWfQbAGaPMNwx-1" vertex="1">
          <mxGeometry x="350" y="437.5" width="120" height="60" as="geometry" />
        </mxCell>
        <mxCell id="n0wWu6Av8mYLY1hxn7-u-4" value="No" style="edgeStyle=orthogonalEdgeStyle;rounded=0;orthogonalLoop=1;jettySize=auto;html=1;exitX=0.5;exitY=0;exitDx=0;exitDy=0;entryX=0.5;entryY=1;entryDx=0;entryDy=0;labelBorderColor=#000000;" edge="1" parent="YX02N_2gWfQbAGaPMNwx-1" source="n0wWu6Av8mYLY1hxn7-u-1" target="YX02N_2gWfQbAGaPMNwx-6">
          <mxGeometry relative="1" as="geometry" />
        </mxCell>
        <mxCell id="n0wWu6Av8mYLY1hxn7-u-1" value="Right Size" style="rhombus;whiteSpace=wrap;html=1;shadow=0;fontFamily=Helvetica;fontSize=12;align=center;strokeWidth=1;spacing=6;spacingTop=-4;" vertex="1" parent="YX02N_2gWfQbAGaPMNwx-1">
          <mxGeometry x="360" y="290" width="100" height="80" as="geometry" />
        </mxCell>
      </root>
    </mxGraphModel>
  </diagram>
  <diagram id="P8_YYbq9w0NBElO1dFQf" name="Food">
    <mxGraphModel dx="1002" dy="715" grid="1" gridSize="10" guides="1" tooltips="1" connect="1" arrows="1" fold="1" page="1" pageScale="1" pageWidth="850" pageHeight="1100" math="0" shadow="0">
      <root>
        <mxCell id="TCgS16UWPqWZcTtPF7X4-0" />
        <mxCell id="TCgS16UWPqWZcTtPF7X4-1" parent="TCgS16UWPqWZcTtPF7X4-0" />
        <mxCell id="TCgS16UWPqWZcTtPF7X4-2" value="Yes" style="edgeStyle=orthogonalEdgeStyle;rounded=0;orthogonalLoop=1;jettySize=auto;html=1;exitX=1;exitY=0.5;exitDx=0;exitDy=0;entryX=0;entryY=0.5;entryDx=0;entryDy=0;labelBorderColor=#000000;" parent="TCgS16UWPqWZcTtPF7X4-1" source="TCgS16UWPqWZcTtPF7X4-4" target="TCgS16UWPqWZcTtPF7X4-6" edge="1">
          <mxGeometry relative="1" as="geometry" />
        </mxCell>
        <mxCell id="TCgS16UWPqWZcTtPF7X4-3" value="No" style="edgeStyle=orthogonalEdgeStyle;rounded=0;orthogonalLoop=1;jettySize=auto;html=1;exitX=0.5;exitY=1;exitDx=0;exitDy=0;entryX=0;entryY=0.5;entryDx=0;entryDy=0;labelBorderColor=#000000;" parent="TCgS16UWPqWZcTtPF7X4-1" source="TCgS16UWPqWZcTtPF7X4-4" target="TCgS16UWPqWZcTtPF7X4-10" edge="1">
          <mxGeometry x="-0.7778" relative="1" as="geometry">
            <mxPoint as="offset" />
          </mxGeometry>
        </mxCell>
        <mxCell id="TCgS16UWPqWZcTtPF7X4-4" value="Item Needed" style="rhombus;whiteSpace=wrap;html=1;shadow=0;fontFamily=Helvetica;fontSize=12;align=center;strokeWidth=1;spacing=6;spacingTop=-4;" parent="TCgS16UWPqWZcTtPF7X4-1" vertex="1">
          <mxGeometry x="170" y="150" width="100" height="80" as="geometry" />
        </mxCell>
        <mxCell id="TCgS16UWPqWZcTtPF7X4-5" value="" style="edgeStyle=orthogonalEdgeStyle;rounded=0;orthogonalLoop=1;jettySize=auto;html=1;" parent="TCgS16UWPqWZcTtPF7X4-1" source="TCgS16UWPqWZcTtPF7X4-6" edge="1">
          <mxGeometry relative="1" as="geometry">
            <mxPoint x="430" y="270" as="targetPoint" />
          </mxGeometry>
        </mxCell>
        <mxCell id="TCgS16UWPqWZcTtPF7X4-6" value="Add to List" style="whiteSpace=wrap;html=1;rounded=1;shadow=0;strokeWidth=1;glass=0;" parent="TCgS16UWPqWZcTtPF7X4-1" vertex="1">
          <mxGeometry x="370" y="167.5" width="120" height="45" as="geometry" />
        </mxCell>
        <mxCell id="TCgS16UWPqWZcTtPF7X4-7" value="Yes" style="edgeStyle=orthogonalEdgeStyle;rounded=0;orthogonalLoop=1;jettySize=auto;html=1;exitX=1;exitY=0.5;exitDx=0;exitDy=0;labelBorderColor=#000000;" parent="TCgS16UWPqWZcTtPF7X4-1" source="WmwJRZxapRDCOBKStBZ3-0" edge="1">
          <mxGeometry relative="1" as="geometry">
            <mxPoint x="570" y="315" as="targetPoint" />
            <mxPoint x="490" y="315" as="sourcePoint" />
          </mxGeometry>
        </mxCell>
        <mxCell id="TCgS16UWPqWZcTtPF7X4-8" value="No" style="edgeStyle=orthogonalEdgeStyle;rounded=0;orthogonalLoop=1;jettySize=auto;html=1;exitX=0.5;exitY=1;exitDx=0;exitDy=0;" parent="TCgS16UWPqWZcTtPF7X4-1" source="WmwJRZxapRDCOBKStBZ3-0" target="TCgS16UWPqWZcTtPF7X4-10" edge="1">
          <mxGeometry relative="1" as="geometry">
            <Array as="points" />
            <mxPoint x="430" y="360" as="sourcePoint" />
          </mxGeometry>
        </mxCell>
        <mxCell id="TCgS16UWPqWZcTtPF7X4-10" value="Do Nothing" style="whiteSpace=wrap;html=1;rounded=1;shadow=0;strokeWidth=1;glass=0;" parent="TCgS16UWPqWZcTtPF7X4-1" vertex="1">
          <mxGeometry x="370" y="417.5" width="120" height="45" as="geometry" />
        </mxCell>
        <mxCell id="TCgS16UWPqWZcTtPF7X4-11" value="Go to Store" style="whiteSpace=wrap;html=1;rounded=1;shadow=0;strokeWidth=1;glass=0;" parent="TCgS16UWPqWZcTtPF7X4-1" vertex="1">
          <mxGeometry x="570" y="292.5" width="120" height="45" as="geometry" />
        </mxCell>
        <mxCell id="WmwJRZxapRDCOBKStBZ3-0" value="Item List &amp;gt;= 5" style="rhombus;whiteSpace=wrap;html=1;shadow=0;fontFamily=Helvetica;fontSize=12;align=center;strokeWidth=1;spacing=6;spacingTop=-4;" vertex="1" parent="TCgS16UWPqWZcTtPF7X4-1">
          <mxGeometry x="380" y="270" width="100" height="80" as="geometry" />
        </mxCell>
      </root>
    </mxGraphModel>
  </diagram>
  <diagram id="xv993Q9pEGmPM_gxwt47" name="Maze">
    <mxGraphModel dx="1002" dy="715" grid="1" gridSize="10" guides="1" tooltips="1" connect="1" arrows="1" fold="1" page="1" pageScale="1" pageWidth="850" pageHeight="1100" math="0" shadow="0">
      <root>
        <mxCell id="hP3BRZbf5tPtZrtCrIV2-0" />
        <mxCell id="hP3BRZbf5tPtZrtCrIV2-1" parent="hP3BRZbf5tPtZrtCrIV2-0" />
        <mxCell id="hPZNmaf0HsA6M60wiDp--0" value="Yes" style="edgeStyle=orthogonalEdgeStyle;rounded=0;orthogonalLoop=1;jettySize=auto;html=1;exitX=1;exitY=0.5;exitDx=0;exitDy=0;entryX=0;entryY=0.5;entryDx=0;entryDy=0;labelBorderColor=#000000;" edge="1" parent="hP3BRZbf5tPtZrtCrIV2-1" source="hPZNmaf0HsA6M60wiDp--2" target="hPZNmaf0HsA6M60wiDp--23">
          <mxGeometry relative="1" as="geometry">
            <mxPoint x="370" y="190" as="targetPoint" />
          </mxGeometry>
        </mxCell>
        <mxCell id="hPZNmaf0HsA6M60wiDp--1" value="No" style="edgeStyle=orthogonalEdgeStyle;rounded=0;orthogonalLoop=1;jettySize=auto;html=1;exitX=0.5;exitY=1;exitDx=0;exitDy=0;labelBorderColor=#000000;" edge="1" parent="hP3BRZbf5tPtZrtCrIV2-1" source="hPZNmaf0HsA6M60wiDp--2" target="hPZNmaf0HsA6M60wiDp--12">
          <mxGeometry x="-0.2" relative="1" as="geometry">
            <mxPoint as="offset" />
            <mxPoint x="220" y="240" as="sourcePoint" />
            <mxPoint x="370" y="440" as="targetPoint" />
          </mxGeometry>
        </mxCell>
        <mxCell id="hPZNmaf0HsA6M60wiDp--2" value="Path Blocked" style="rhombus;whiteSpace=wrap;html=1;shadow=0;fontFamily=Helvetica;fontSize=12;align=center;strokeWidth=1;spacing=6;spacingTop=-4;" vertex="1" parent="hP3BRZbf5tPtZrtCrIV2-1">
          <mxGeometry x="170" y="150" width="100" height="80" as="geometry" />
        </mxCell>
        <mxCell id="hPZNmaf0HsA6M60wiDp--3" value="No" style="edgeStyle=orthogonalEdgeStyle;rounded=0;orthogonalLoop=1;jettySize=auto;html=1;entryX=0.5;entryY=0;entryDx=0;entryDy=0;exitX=0.5;exitY=1;exitDx=0;exitDy=0;" edge="1" parent="hP3BRZbf5tPtZrtCrIV2-1" source="hPZNmaf0HsA6M60wiDp--23" target="hPZNmaf0HsA6M60wiDp--14">
          <mxGeometry relative="1" as="geometry">
            <mxPoint x="430" y="270" as="targetPoint" />
            <mxPoint x="430" y="212.5" as="sourcePoint" />
          </mxGeometry>
        </mxCell>
        <mxCell id="hPZNmaf0HsA6M60wiDp--20" style="edgeStyle=orthogonalEdgeStyle;curved=1;orthogonalLoop=1;jettySize=auto;html=1;exitX=1;exitY=0.5;exitDx=0;exitDy=0;entryX=0;entryY=0.5;entryDx=0;entryDy=0;" edge="1" parent="hP3BRZbf5tPtZrtCrIV2-1" source="hPZNmaf0HsA6M60wiDp--10" target="hPZNmaf0HsA6M60wiDp--19">
          <mxGeometry relative="1" as="geometry" />
        </mxCell>
        <mxCell id="hPZNmaf0HsA6M60wiDp--10" value="Start" style="whiteSpace=wrap;html=1;rounded=1;shadow=0;strokeWidth=1;glass=0;" vertex="1" parent="hP3BRZbf5tPtZrtCrIV2-1">
          <mxGeometry x="160" y="30" width="120" height="45" as="geometry" />
        </mxCell>
        <mxCell id="hPZNmaf0HsA6M60wiDp--30" style="edgeStyle=orthogonalEdgeStyle;curved=1;orthogonalLoop=1;jettySize=auto;html=1;exitX=0.5;exitY=1;exitDx=0;exitDy=0;" edge="1" parent="hP3BRZbf5tPtZrtCrIV2-1" source="hPZNmaf0HsA6M60wiDp--12" target="hPZNmaf0HsA6M60wiDp--29">
          <mxGeometry relative="1" as="geometry" />
        </mxCell>
        <mxCell id="hPZNmaf0HsA6M60wiDp--12" value="Walk forwards" style="whiteSpace=wrap;html=1;rounded=1;shadow=0;strokeWidth=1;glass=0;" vertex="1" parent="hP3BRZbf5tPtZrtCrIV2-1">
          <mxGeometry x="160" y="292.5" width="120" height="45" as="geometry" />
        </mxCell>
        <mxCell id="hPZNmaf0HsA6M60wiDp--25" value="No" style="edgeStyle=orthogonalEdgeStyle;orthogonalLoop=1;jettySize=auto;html=1;exitX=1;exitY=0.5;exitDx=0;exitDy=0;entryX=0.5;entryY=1;entryDx=0;entryDy=0;rounded=0;fillColor=#dae8fc;strokeColor=#6c8ebf;labelBorderColor=#000000;" edge="1" parent="hP3BRZbf5tPtZrtCrIV2-1" source="hPZNmaf0HsA6M60wiDp--14" target="hPZNmaf0HsA6M60wiDp--15">
          <mxGeometry x="-0.3786" relative="1" as="geometry">
            <mxPoint as="offset" />
          </mxGeometry>
        </mxCell>
        <mxCell id="hPZNmaf0HsA6M60wiDp--27" value="Yes" style="edgeStyle=orthogonalEdgeStyle;rounded=0;orthogonalLoop=1;jettySize=auto;html=1;exitX=0.5;exitY=1;exitDx=0;exitDy=0;entryX=0.5;entryY=0;entryDx=0;entryDy=0;labelBorderColor=#000000;" edge="1" parent="hP3BRZbf5tPtZrtCrIV2-1" source="hPZNmaf0HsA6M60wiDp--14" target="hPZNmaf0HsA6M60wiDp--22">
          <mxGeometry relative="1" as="geometry" />
        </mxCell>
        <mxCell id="hPZNmaf0HsA6M60wiDp--14" value="Can Turn" style="rhombus;whiteSpace=wrap;html=1;shadow=0;fontFamily=Helvetica;fontSize=12;align=center;strokeWidth=1;spacing=6;spacingTop=-4;" vertex="1" parent="hP3BRZbf5tPtZrtCrIV2-1">
          <mxGeometry x="400" y="290" width="100" height="80" as="geometry" />
        </mxCell>
        <mxCell id="hPZNmaf0HsA6M60wiDp--16" style="edgeStyle=orthogonalEdgeStyle;orthogonalLoop=1;jettySize=auto;html=1;exitX=0;exitY=0.5;exitDx=0;exitDy=0;entryX=0;entryY=1;entryDx=0;entryDy=0;strokeColor=none;curved=1;" edge="1" parent="hP3BRZbf5tPtZrtCrIV2-1" source="hPZNmaf0HsA6M60wiDp--15" target="hPZNmaf0HsA6M60wiDp--14">
          <mxGeometry relative="1" as="geometry">
            <Array as="points">
              <mxPoint x="250" y="313" />
              <mxPoint x="350" y="313" />
              <mxPoint x="350" y="240" />
              <mxPoint x="380" y="240" />
              <mxPoint x="380" y="400" />
              <mxPoint x="465" y="400" />
            </Array>
          </mxGeometry>
        </mxCell>
        <mxCell id="hPZNmaf0HsA6M60wiDp--34" style="edgeStyle=orthogonalEdgeStyle;rounded=0;orthogonalLoop=1;jettySize=auto;html=1;exitX=0;exitY=1;exitDx=0;exitDy=0;fillColor=#dae8fc;strokeColor=#6c8ebf;" edge="1" parent="hP3BRZbf5tPtZrtCrIV2-1" source="hPZNmaf0HsA6M60wiDp--15">
          <mxGeometry relative="1" as="geometry">
            <mxPoint x="480" y="310" as="targetPoint" />
          </mxGeometry>
        </mxCell>
        <mxCell id="hPZNmaf0HsA6M60wiDp--15" value="Retrace String" style="whiteSpace=wrap;html=1;rounded=1;shadow=0;strokeWidth=1;glass=0;" vertex="1" parent="hP3BRZbf5tPtZrtCrIV2-1">
          <mxGeometry x="580" y="167.5" width="120" height="45" as="geometry" />
        </mxCell>
        <mxCell id="hPZNmaf0HsA6M60wiDp--21" style="edgeStyle=orthogonalEdgeStyle;curved=1;orthogonalLoop=1;jettySize=auto;html=1;exitX=0.5;exitY=1;exitDx=0;exitDy=0;entryX=0.5;entryY=0;entryDx=0;entryDy=0;" edge="1" parent="hP3BRZbf5tPtZrtCrIV2-1" source="hPZNmaf0HsA6M60wiDp--19" target="hPZNmaf0HsA6M60wiDp--2">
          <mxGeometry relative="1" as="geometry" />
        </mxCell>
        <mxCell id="hPZNmaf0HsA6M60wiDp--19" value="Place String" style="whiteSpace=wrap;html=1;rounded=1;shadow=0;strokeWidth=1;glass=0;" vertex="1" parent="hP3BRZbf5tPtZrtCrIV2-1">
          <mxGeometry x="320" y="30" width="120" height="45" as="geometry" />
        </mxCell>
        <mxCell id="hPZNmaf0HsA6M60wiDp--28" style="edgeStyle=orthogonalEdgeStyle;orthogonalLoop=1;jettySize=auto;html=1;exitX=0;exitY=0.5;exitDx=0;exitDy=0;entryX=1;entryY=1;entryDx=0;entryDy=0;curved=1;" edge="1" parent="hP3BRZbf5tPtZrtCrIV2-1" source="hPZNmaf0HsA6M60wiDp--22" target="hPZNmaf0HsA6M60wiDp--2">
          <mxGeometry relative="1" as="geometry">
            <Array as="points">
              <mxPoint x="320" y="453" />
              <mxPoint x="320" y="210" />
            </Array>
          </mxGeometry>
        </mxCell>
        <mxCell id="hPZNmaf0HsA6M60wiDp--22" value="Turn" style="whiteSpace=wrap;html=1;rounded=1;shadow=0;strokeWidth=1;glass=0;" vertex="1" parent="hP3BRZbf5tPtZrtCrIV2-1">
          <mxGeometry x="390" y="430" width="120" height="45" as="geometry" />
        </mxCell>
        <mxCell id="hPZNmaf0HsA6M60wiDp--24" value="Yes" style="edgeStyle=orthogonalEdgeStyle;curved=1;orthogonalLoop=1;jettySize=auto;html=1;exitX=1;exitY=0.5;exitDx=0;exitDy=0;entryX=0;entryY=0.5;entryDx=0;entryDy=0;labelBorderColor=#000000;" edge="1" parent="hP3BRZbf5tPtZrtCrIV2-1" source="hPZNmaf0HsA6M60wiDp--23" target="hPZNmaf0HsA6M60wiDp--15">
          <mxGeometry relative="1" as="geometry" />
        </mxCell>
        <mxCell id="hPZNmaf0HsA6M60wiDp--23" value="Path Blocked By string" style="rhombus;whiteSpace=wrap;html=1;shadow=0;fontFamily=Helvetica;fontSize=12;align=center;strokeWidth=1;spacing=6;spacingTop=-4;" vertex="1" parent="hP3BRZbf5tPtZrtCrIV2-1">
          <mxGeometry x="400" y="150" width="100" height="80" as="geometry" />
        </mxCell>
        <mxCell id="hPZNmaf0HsA6M60wiDp--31" value="No" style="edgeStyle=orthogonalEdgeStyle;curved=1;orthogonalLoop=1;jettySize=auto;html=1;exitX=0;exitY=0.5;exitDx=0;exitDy=0;entryX=0;entryY=0.5;entryDx=0;entryDy=0;labelBorderColor=#000000;" edge="1" parent="hP3BRZbf5tPtZrtCrIV2-1" source="hPZNmaf0HsA6M60wiDp--29" target="hPZNmaf0HsA6M60wiDp--2">
          <mxGeometry relative="1" as="geometry">
            <Array as="points">
              <mxPoint x="90" y="460" />
              <mxPoint x="90" y="190" />
            </Array>
          </mxGeometry>
        </mxCell>
        <mxCell id="hPZNmaf0HsA6M60wiDp--32" value="Yes" style="edgeStyle=orthogonalEdgeStyle;orthogonalLoop=1;jettySize=auto;html=1;exitX=0.5;exitY=1;exitDx=0;exitDy=0;entryX=0;entryY=0.5;entryDx=0;entryDy=0;rounded=0;labelBorderColor=#000000;" edge="1" parent="hP3BRZbf5tPtZrtCrIV2-1" source="hPZNmaf0HsA6M60wiDp--29" target="hPZNmaf0HsA6M60wiDp--33">
          <mxGeometry relative="1" as="geometry">
            <mxPoint x="290" y="590" as="targetPoint" />
          </mxGeometry>
        </mxCell>
        <mxCell id="hPZNmaf0HsA6M60wiDp--29" value="At End" style="rhombus;whiteSpace=wrap;html=1;shadow=0;fontFamily=Helvetica;fontSize=12;align=center;strokeWidth=1;spacing=6;spacingTop=-4;" vertex="1" parent="hP3BRZbf5tPtZrtCrIV2-1">
          <mxGeometry x="170" y="420" width="100" height="80" as="geometry" />
        </mxCell>
        <mxCell id="hPZNmaf0HsA6M60wiDp--33" value="End" style="whiteSpace=wrap;html=1;rounded=1;shadow=0;strokeWidth=1;glass=0;" vertex="1" parent="hP3BRZbf5tPtZrtCrIV2-1">
          <mxGeometry x="330" y="545" width="120" height="45" as="geometry" />
        </mxCell>
        <mxCell id="hPZNmaf0HsA6M60wiDp--35" value="Loop" style="text;html=1;align=center;verticalAlign=middle;resizable=0;points=[];autosize=1;strokeColor=none;fontColor=#007FFF;" vertex="1" parent="hP3BRZbf5tPtZrtCrIV2-1">
          <mxGeometry x="550" y="280" width="40" height="20" as="geometry" />
        </mxCell>
      </root>
    </mxGraphModel>
  </diagram>
  <diagram id="FyrGQjI8G2rFKBScx5Wk" name="Mail">
    <mxGraphModel dx="1179" dy="841" grid="1" gridSize="10" guides="1" tooltips="1" connect="1" arrows="1" fold="1" page="1" pageScale="1" pageWidth="850" pageHeight="1100" math="0" shadow="0">
      <root>
        <mxCell id="YbGT4t_UaGKR6pRkS9q8-0" />
        <mxCell id="YbGT4t_UaGKR6pRkS9q8-1" parent="YbGT4t_UaGKR6pRkS9q8-0" />
        <mxCell id="NcpBdbc12NjHtdVDo96e-1" value="No" style="edgeStyle=orthogonalEdgeStyle;rounded=0;orthogonalLoop=1;jettySize=auto;html=1;exitX=0.5;exitY=1;exitDx=0;exitDy=0;entryX=1;entryY=0.5;entryDx=0;entryDy=0;labelBorderColor=#000000;" edge="1" parent="YbGT4t_UaGKR6pRkS9q8-1" source="NcpBdbc12NjHtdVDo96e-2">
          <mxGeometry x="-0.7778" relative="1" as="geometry">
            <mxPoint as="offset" />
            <mxPoint x="490" y="330" as="targetPoint" />
          </mxGeometry>
        </mxCell>
        <mxCell id="NcpBdbc12NjHtdVDo96e-25" value="Yes" style="edgeStyle=orthogonalEdgeStyle;rounded=0;orthogonalLoop=1;jettySize=auto;html=1;fontColor=#000000;entryX=1;entryY=0.5;entryDx=0;entryDy=0;labelBorderColor=#000000;" edge="1" parent="YbGT4t_UaGKR6pRkS9q8-1" source="NcpBdbc12NjHtdVDo96e-2" target="NcpBdbc12NjHtdVDo96e-8">
          <mxGeometry relative="1" as="geometry">
            <mxPoint x="339.9999999999998" y="290" as="targetPoint" />
          </mxGeometry>
        </mxCell>
        <mxCell id="NcpBdbc12NjHtdVDo96e-2" value="Item A &amp;gt; Left Item" style="rhombus;whiteSpace=wrap;html=1;shadow=0;fontFamily=Helvetica;fontSize=12;align=center;strokeWidth=1;spacing=6;spacingTop=-4;" vertex="1" parent="YbGT4t_UaGKR6pRkS9q8-1">
          <mxGeometry x="530" y="200" width="100" height="80" as="geometry" />
        </mxCell>
        <mxCell id="NcpBdbc12NjHtdVDo96e-4" value="Leave in Place" style="whiteSpace=wrap;html=1;rounded=1;shadow=0;strokeWidth=1;glass=0;" vertex="1" parent="YbGT4t_UaGKR6pRkS9q8-1">
          <mxGeometry x="530" y="450" width="120" height="45" as="geometry" />
        </mxCell>
        <mxCell id="NcpBdbc12NjHtdVDo96e-23" style="edgeStyle=orthogonalEdgeStyle;rounded=0;orthogonalLoop=1;jettySize=auto;html=1;exitX=1;exitY=0.5;exitDx=0;exitDy=0;entryX=0;entryY=0.5;entryDx=0;entryDy=0;fontColor=#000000;" edge="1" parent="YbGT4t_UaGKR6pRkS9q8-1" source="NcpBdbc12NjHtdVDo96e-7" target="NcpBdbc12NjHtdVDo96e-18">
          <mxGeometry relative="1" as="geometry" />
        </mxCell>
        <mxCell id="NcpBdbc12NjHtdVDo96e-7" value="Move Right" style="whiteSpace=wrap;html=1;rounded=1;shadow=0;strokeWidth=1;glass=0;" vertex="1" parent="YbGT4t_UaGKR6pRkS9q8-1">
          <mxGeometry x="425" y="330" width="120" height="45" as="geometry" />
        </mxCell>
        <mxCell id="NcpBdbc12NjHtdVDo96e-26" style="edgeStyle=orthogonalEdgeStyle;rounded=0;orthogonalLoop=1;jettySize=auto;html=1;exitX=0.5;exitY=1;exitDx=0;exitDy=0;entryX=1;entryY=0.5;entryDx=0;entryDy=0;fontColor=#000000;" edge="1" parent="YbGT4t_UaGKR6pRkS9q8-1" source="NcpBdbc12NjHtdVDo96e-8" target="NcpBdbc12NjHtdVDo96e-18">
          <mxGeometry relative="1" as="geometry">
            <Array as="points">
              <mxPoint x="300" y="570" />
              <mxPoint x="801" y="570" />
              <mxPoint x="801" y="320" />
            </Array>
          </mxGeometry>
        </mxCell>
        <mxCell id="NcpBdbc12NjHtdVDo96e-8" value="Move Left" style="whiteSpace=wrap;html=1;rounded=1;shadow=0;strokeWidth=1;glass=0;" vertex="1" parent="YbGT4t_UaGKR6pRkS9q8-1">
          <mxGeometry x="240" y="217.5" width="120" height="45" as="geometry" />
        </mxCell>
        <mxCell id="NcpBdbc12NjHtdVDo96e-16" style="edgeStyle=orthogonalEdgeStyle;rounded=0;orthogonalLoop=1;jettySize=auto;html=1;exitX=1;exitY=0.5;exitDx=0;exitDy=0;entryX=0;entryY=0.5;entryDx=0;entryDy=0;fontColor=#007FFF;" edge="1" parent="YbGT4t_UaGKR6pRkS9q8-1" source="NcpBdbc12NjHtdVDo96e-10" target="NcpBdbc12NjHtdVDo96e-14">
          <mxGeometry relative="1" as="geometry" />
        </mxCell>
        <mxCell id="NcpBdbc12NjHtdVDo96e-10" value="Start" style="whiteSpace=wrap;html=1;rounded=1;shadow=0;strokeWidth=1;glass=0;" vertex="1" parent="YbGT4t_UaGKR6pRkS9q8-1">
          <mxGeometry x="160" y="40" width="120" height="45" as="geometry" />
        </mxCell>
        <mxCell id="NcpBdbc12NjHtdVDo96e-17" value="Take Item" style="edgeStyle=orthogonalEdgeStyle;rounded=0;orthogonalLoop=1;jettySize=auto;html=1;entryX=0.5;entryY=0;entryDx=0;entryDy=0;labelBorderColor=#000000;" edge="1" parent="YbGT4t_UaGKR6pRkS9q8-1" source="NcpBdbc12NjHtdVDo96e-12" target="NcpBdbc12NjHtdVDo96e-2">
          <mxGeometry relative="1" as="geometry" />
        </mxCell>
        <mxCell id="NcpBdbc12NjHtdVDo96e-12" value="List" style="swimlane;fontStyle=0;childLayout=stackLayout;horizontal=1;startSize=26;fillColor=none;horizontalStack=0;resizeParent=1;resizeParentMax=0;resizeLast=0;collapsible=1;marginBottom=0;fontColor=#007FFF;" vertex="1" parent="YbGT4t_UaGKR6pRkS9q8-1">
          <mxGeometry x="410" y="10" width="140" height="104" as="geometry" />
        </mxCell>
        <mxCell id="NcpBdbc12NjHtdVDo96e-13" value="Item A" style="text;strokeColor=none;fillColor=none;align=left;verticalAlign=top;spacingLeft=4;spacingRight=4;overflow=hidden;rotatable=0;points=[[0,0.5],[1,0.5]];portConstraint=eastwest;" vertex="1" parent="NcpBdbc12NjHtdVDo96e-12">
          <mxGeometry y="26" width="140" height="26" as="geometry" />
        </mxCell>
        <mxCell id="NcpBdbc12NjHtdVDo96e-14" value="Item B" style="text;strokeColor=none;fillColor=none;align=left;verticalAlign=top;spacingLeft=4;spacingRight=4;overflow=hidden;rotatable=0;points=[[0,0.5],[1,0.5]];portConstraint=eastwest;" vertex="1" parent="NcpBdbc12NjHtdVDo96e-12">
          <mxGeometry y="52" width="140" height="26" as="geometry" />
        </mxCell>
        <mxCell id="NcpBdbc12NjHtdVDo96e-15" value="Item C" style="text;strokeColor=none;fillColor=none;align=left;verticalAlign=top;spacingLeft=4;spacingRight=4;overflow=hidden;rotatable=0;points=[[0,0.5],[1,0.5]];portConstraint=eastwest;" vertex="1" parent="NcpBdbc12NjHtdVDo96e-12">
          <mxGeometry y="78" width="140" height="26" as="geometry" />
        </mxCell>
        <mxCell id="NcpBdbc12NjHtdVDo96e-21" value="No" style="edgeStyle=orthogonalEdgeStyle;rounded=0;orthogonalLoop=1;jettySize=auto;html=1;exitX=0.5;exitY=1;exitDx=0;exitDy=0;entryX=0.5;entryY=0;entryDx=0;entryDy=0;fontColor=#000000;labelBorderColor=#000000;" edge="1" parent="YbGT4t_UaGKR6pRkS9q8-1" source="NcpBdbc12NjHtdVDo96e-18" target="NcpBdbc12NjHtdVDo96e-27">
          <mxGeometry relative="1" as="geometry" />
        </mxCell>
        <mxCell id="NcpBdbc12NjHtdVDo96e-24" value="Yes" style="edgeStyle=orthogonalEdgeStyle;rounded=0;orthogonalLoop=1;jettySize=auto;html=1;exitX=0.5;exitY=0;exitDx=0;exitDy=0;entryX=1;entryY=0.5;entryDx=0;entryDy=0;fontColor=#000000;labelBorderColor=#000000;" edge="1" parent="YbGT4t_UaGKR6pRkS9q8-1" source="NcpBdbc12NjHtdVDo96e-18" target="NcpBdbc12NjHtdVDo96e-2">
          <mxGeometry x="0.2905" relative="1" as="geometry">
            <Array as="points">
              <mxPoint x="731" y="240" />
            </Array>
            <mxPoint as="offset" />
          </mxGeometry>
        </mxCell>
        <mxCell id="NcpBdbc12NjHtdVDo96e-18" value="Item A &amp;lt; Right Item" style="rhombus;whiteSpace=wrap;html=1;shadow=0;fontFamily=Helvetica;fontSize=12;align=center;strokeWidth=1;spacing=6;spacingTop=-4;" vertex="1" parent="YbGT4t_UaGKR6pRkS9q8-1">
          <mxGeometry x="681" y="280" width="100" height="80" as="geometry" />
        </mxCell>
        <mxCell id="JBUUYj4s7WIq4x776-ZU-0" value="Yes" style="edgeStyle=orthogonalEdgeStyle;rounded=0;orthogonalLoop=1;jettySize=auto;html=1;exitX=1;exitY=0.5;exitDx=0;exitDy=0;entryX=0;entryY=0.5;entryDx=0;entryDy=0;fontColor=#000000;" edge="1" parent="YbGT4t_UaGKR6pRkS9q8-1" source="NcpBdbc12NjHtdVDo96e-27" target="NcpBdbc12NjHtdVDo96e-4">
          <mxGeometry relative="1" as="geometry" />
        </mxCell>
        <mxCell id="JBUUYj4s7WIq4x776-ZU-1" value="No" style="edgeStyle=orthogonalEdgeStyle;rounded=0;orthogonalLoop=1;jettySize=auto;html=1;exitX=0;exitY=0.5;exitDx=0;exitDy=0;entryX=0;entryY=1;entryDx=0;entryDy=0;fontColor=#000000;" edge="1" parent="YbGT4t_UaGKR6pRkS9q8-1" source="NcpBdbc12NjHtdVDo96e-27" target="NcpBdbc12NjHtdVDo96e-2">
          <mxGeometry x="-0.2209" relative="1" as="geometry">
            <Array as="points">
              <mxPoint x="370" y="450" />
              <mxPoint x="370" y="270" />
              <mxPoint x="555" y="270" />
            </Array>
            <mxPoint y="-1" as="offset" />
          </mxGeometry>
        </mxCell>
        <mxCell id="NcpBdbc12NjHtdVDo96e-27" value="Item A &amp;lt; Item L" style="rhombus;whiteSpace=wrap;html=1;shadow=0;fontFamily=Helvetica;fontSize=12;align=center;strokeWidth=1;spacing=6;spacingTop=-4;" vertex="1" parent="YbGT4t_UaGKR6pRkS9q8-1">
          <mxGeometry x="360" y="410" width="100" height="80" as="geometry" />
        </mxCell>
      </root>
    </mxGraphModel>
  </diagram>
  <diagram id="yNM3bQeI2JvmZ7CCxA6l" name="Page-6">
    <mxGraphModel dx="1002" dy="715" grid="1" gridSize="10" guides="1" tooltips="1" connect="1" arrows="1" fold="1" page="1" pageScale="1" pageWidth="850" pageHeight="1100" math="0" shadow="0">
      <root>
        <mxCell id="u1Ov_7D7V2e2_0B0laeu-0" />
        <mxCell id="u1Ov_7D7V2e2_0B0laeu-1" parent="u1Ov_7D7V2e2_0B0laeu-0" />
      </root>
    </mxGraphModel>
  </diagram>
</mxfile>
